#!OML:ASF E:/inclinewalkrobotboard/Project1/Captureday1/Session1/subject1.ASF
:FULLY-SPECIFIED
:DEGREES
251
root 0 0 0 0.46142160591115156 -3.1552979727934587 1.2730221060228886
lowerback 11.505132455578696 0.6262287210562916 -0.5487634793798898
upperback -2.7796679907918755 0.7883931417472037 0.016189430435801233
thorax -9.451877140329637 0.35191136935569517 0.20865916741559953
lowerneck -9.796583812436443 0.26433932772410795 2.3763951856830854
upperneck 18.551991205550745 1.135156614790056 -5.507149586501577
head 7.446608950159753 0.27472273054539964 -2.0905695755133062
rclavicle 2.1288335155172027E-16 -7.379714539083078E-16
rhumerus 2.581860022910618 3.438324601112381 -59.56524765146316
rradius 56.196308429828946
rwrist 17.53990829840232
rhand -28.400414947102966 -27.54501097371485
rfingers 7.125019999999986
rthumb -1.7679604236587956 -57.78397614549384
lclavicle -8.353109931474581E-16 -1.7433064113596882E-16
lhumerus 3.081726803123189 -9.602091387285393 59.03085809772804
lradius 55.780237811647396
lwrist -11.275825849515208
lhand -38.86394058106765 -36.00374713404564
lfingers 7.125019999999983
lthumb -11.804900124193303 -6.311971764904143
rfemur -25.467436483788116 1.7484740514126584 19.936530963049986
rtibia 47.89118783415212
rfoot -7.27065180648174 -9.889464139787936
rtoes -1.465131174504453
lfemur -14.87291316857042 -0.30197666811675095 -17.177728806100085
ltibia 42.595933982381396
lfoot -6.02010484978391 -4.783647552439372
ltoes -6.249207514649355
252
root 0 0 0 0.46142323973029997 -3.1552936954403807 1.273032552111845
lowerback 11.505134007615393 0.6262256159457443 -0.5487722590208403
upperback -2.7796705215905875 0.7883877864608981 0.01618805556506464
thorax -9.451881026975965 0.3519089780340349 0.20866397742816878
lowerneck -9.79657742730754 0.2643422782457434 2.376398379391847
upperneck 18.55199279607608 1.1351613908872786 -5.507155394755673
head 7.446608524433071 0.2747248232966135 -2.0905714332944028
rclavicle 2.128833996546925E-16 -7.379723365593394E-16
rhumerus 2.5818641915056375 3.4383270821337355 -59.5652448275412
rradius 56.19631218098102
rwrist 17.539910584646982
rhand -28.400416285984537 -27.545017700929275
rfingers 7.125019999999986
rthumb -1.7679618395087946 -57.78398320012415
lclavicle -8.353118182097325E-16 -1.7433052545672795E-16
lhumerus 3.0817439620875646 -9.602095984111823 59.03084602717113
lradius 55.78025099937508
lwrist -11.275834131908208
lhand -38.86394626854388 -36.00377622682883
lfingers 7.125019999999983
lthumb -11.804905604274722 -6.3120022192771685
rfemur -25.467719569252136 1.7483966609258912 19.93638989218625
rtibia 47.89152445460177
rfoot -7.270523708233098 -9.88950035345211
rtoes -1.465146418502498
lfemur -14.873289636081948 -0.3018223287397569 -17.177489850557187
ltibia 42.59704171804478
lfoot -6.019705257091835 -4.7839646126239845
ltoes -6.249353253556737
253
root 0 0 0 0.4614252508607306 -3.1552922495882822 1.2730388910022727
lowerback 11.505135404160896 0.6262243242455747 -0.5487766255900158
upperback -2.779673212989448 0.7883854689635386 0.016186697640026226
thorax -9.451884933193307 0.35190793872344284 0.2086657308963198
lowerneck -9.796571198869213 0.26434502776922564 2.3764018604009887
upperneck 18.55199389226388 1.1351657445093006 -5.507161097022507
head 7.446607864245627 0.2747267063979806 -2.0905733403111184
rclavicle 2.12883752489911E-16 -7.379725734337081E-16
rhumerus 2.581872354732724 3.438332724187857 -59.56524014650456
rradius 56.19631957670852
rwrist 17.539913999356767
rhand -28.400418900808422 -27.54503006962482
rfingers 7.125019999999986
rthumb -1.7679642848945631 -57.78399591082762
lclavicle -8.3531228477162E-16 -1.7432928398158989E-16
lhumerus 3.081770742607411 -9.60210357085036 59.03082744525898
lradius 55.78027188838695
lwrist -11.27584659461789
lhand -38.86395520353234 -36.003820492104545
lfingers 7.125019999999983
lthumb -11.804914137339287 -6.312048422856769
rfemur -25.467986223738492 1.7483283317091707 19.936258393154755
rtibia 47.891795540915204
rfoot -7.270431033640102 -9.889544041838855
rtoes -1.4651825017577775
lfemur -14.873610734228233 -0.30171185876698714 -17.17730139468969
ltibia 42.59782847914987
lfoot -6.019430025026426 -4.784172659870838
ltoes -6.2494505886643195
254
root 0 0 0 0.4614270844693755 -3.1552932839737906 1.2730406673761474
lowerback 11.50513636754104 0.6262247028623317 -0.5487766448610923
upperback -2.779675410586205 0.7883859841960846 0.016185662911413434
thorax -9.451887963515386 0.35190816211081505 0.2086647662113016
lowerneck -9.79656651100887 0.2643469946486299 2.3764047643943487
upperneck 18.551994377259916 1.135168781626383 -5.50716541898398
head 7.446607182471621 0.2747279994007201 -2.0905748505798774
rclavicle 2.1288425148518186E-16 -7.379722762395285E-16
rhumerus 2.581881646672631 3.4383394444712376 -59.56523514122086
rradius 56.19632801411998
rwrist 17.53991748203088
rhand -28.400421874628588 -27.545043842502803
rfingers 7.125019999999986
rthumb -1.767966944045705 -57.78400995878944
lclavicle -8.353123785636102E-16 -1.743274884936603E-16
lhumerus 3.0817985819834135 -9.602111653805286 59.03080825105917
lradius 55.780293748999114
lwrist -11.275859329326051
lhand -38.86396451955162 -36.00386596459981
lfingers 7.125019999999983
lthumb -11.8049229982434 -6.312095821455586
rfemur -25.468179768727026 1.7482823335403053 19.936164036971068
rtibia 47.891956075975564
rfoot -7.270385825393608 -9.889583299530269
rtoes -1.4652258103890088
lfemur -14.873818024496398 -0.3016590648088422 -17.177193153255867
ltibia 42.598198145049096
lfoot -6.019309664316389 -4.784252418762774
ltoes -6.249489828649471
255
root 0 0 0 0.4614283687852119 -3.155295962489985 1.27303859612532
lowerback 11.505136789683835 0.626226258937555 -0.54877337167323
upperback -2.7796767404936396 0.7883885244899113 0.016185105110000597
thorax -9.451889651878137 0.35190928969533064 0.20866196405177762
lowerneck -9.796564040396632 0.2643479264112596 2.3764065798100904
upperneck 18.55199430131178 1.1351701399650893 -5.507167728221783
head 7.446606641446973 0.27472855511721295 -2.0905757226452106
rclavicle 2.1288474572908798E-16 -7.379716490923965E-16
rhumerus 2.5818896780643854 3.4383454480688442 -59.5652310262093
rradius 56.19633531945992
rwrist 17.53992022788458
rhand -28.400424443454305 -27.545055546982592
rfingers 7.125019999999986
rthumb -1.7679691612255892 -57.78402182603499
lclavicle -8.353121735451202E-16 -1.7432568931425835E-16
lhumerus 3.0818208790371493 -9.602118267959304 59.030792965719364
lradius 55.780311361598045
lwrist -11.275869370903246
lhand -38.86397200075364 -36.0039019959556
lfingers 7.125019999999983
lthumb -11.80493008820753 -6.312133331961483
rfemur -25.468274753007684 1.7482634433492157 19.93611884631744
rtibia 47.89199774466288
rfoot -7.27038624771486 -9.889610301998685
rtoes -1.4652646094311093
lfemur -14.873893787103203 -0.3016611445925741 -17.177169068220564
ltibia 42.5981737451671
lfoot -6.019331777224517 -4.784218636566471
ltoes -6.249476937953396
256
root 0 0 0 0.46142895228176695 -3.15529928080896 1.2730340959756214
lowerback 11.505136713069357 0.6262283529649306 -0.548768352695337
upperback -2.779677121956638 0.7883920200267756 0.016185029889380642
thorax -9.451889956840969 0.3519108453599815 0.20865840588233964
lowerneck -9.796563785208814 0.26434787197501475 2.376407173231898
upperneck 18.55199382784447 1.1351699338269228 -5.5071680124154385
head 7.4466063293324325 0.27472843272426206 -2.090575921793565
rclavicle 2.1288512418089997E-16 -7.379709185734552E-16
rhumerus 2.5818949559444455 3.438349561204296 -59.56522850382683
rradius 56.19634013106301
rwrist 17.539921804801686
rhand -28.400426130302492 -27.545063066679067
rfingers 7.125019999999986
rthumb -1.7679705484196875 -57.784029387928385
lclavicle -8.353117924910187E-16 -1.743242961533827E-16
lhumerus 3.081833985949519 -9.602122286389797 59.03078406200504
lradius 55.78032181138815
lwrist -11.275875126989991
lhand -38.863976416856616 -36.003922815458395
lfingers 7.125019999999983
lthumb -11.804934249457814 -6.312154961986359
rfemur -25.468274681266976 1.7482690479579428 19.936120573414108
rtibia 47.89194138015095
rfoot -7.270420569529423 -9.889622026229299
rtoes -1.4652912138839933
lfemur -14.873854610871785 -0.30170357928454417 -17.177213016759037
ltibia 42.59786170042458
lfoot -6.0194548637877885 -4.7841080179863855
ltoes -6.249428170746757
257
root 0 0 0 0.46142888142669003 -3.1553023395441535 1.273028783808791
lowerback 11.505136282457022 0.6262303828140185 -0.5487631458790473
upperback -2.779676710330535 0.7883954509992446 0.016185331660045765
thorax -9.451889161848403 0.35191237454854507 0.20865507492107438
lowerneck -9.796565240142192 0.2643470927700844 2.3764067225859384
upperneck 18.551993167683378 1.1351686051868626 -5.507166722682301
head 7.446606259323522 0.2747278310583685 -2.090575574857621
rclavicle 2.1288533058673507E-16 -7.379702766233709E-16
rhumerus 2.5818969925890443 3.4383513382950976 -59.56522773620671
rradius 56.19634200009678
rwrist 17.539922155850583
rhand -28.400426779842324 -27.545065773907904
rfingers 7.125019999999986
rthumb -1.7679710047449246 -57.784032038015575
lclavicle -8.353113666442049E-16 -1.7432352139771245E-16
lhumerus 3.0818372764744417 -9.602123460408633 59.03078192995982
lradius 55.78032455702704
lwrist -11.27587638632705
lhand -38.863977548844574 -36.00392758519442
lfingers 7.125019999999983
lthumb -11.804935285937892 -6.312159860548348
rfemur -25.468203770091993 1.7482916370702009 19.936156880780892
rtibia 47.89182474803129
rfoot -7.2704723666250235 -9.889619699696945
rtoes -1.4653026864663854
lfemur -14.873738851043594 -0.3017664260093257 -17.17729760282514
ltibia 42.59740633884748
lfoot -6.019625182156207 -4.783965279117304
ltoes -6.2493637495996355
258
root 0 0 0 0.4614283393002996 -3.1553045231408374 1.2730240544554554
lowerback 11.505135685831037 0.626231911819222 -0.5487589613150071
upperback -2.7796758012213396 0.7883980679284408 0.016185846151300476
thorax -9.451887727514748 0.35191354266023556 0.2086526565046526
lowerneck -9.796567640491357 0.26434594860248994 2.3764055969494637
upperneck 18.55199251936148 1.135166738891316 -5.507164552187324
head 7.446606386017132 0.2747270074475987 -2.0905749000235097
rclavicle 2.1288536215219925E-16 -7.379698459378779E-16
rhumerus 2.5818961586877798 3.43835097651095 -59.565228446829096
rradius 56.19634125858029
rwrist 17.539921516124686
rhand -28.400426511254413 -27.545064290807456
rfingers 7.125019999999986
rthumb -1.7679706658050973 -57.78403043676569
lclavicle -8.353110038128283E-16 -1.7432338266469313E-16
lhumerus 3.0818325121496244 -9.602122250449803 59.03078532319512
lradius 55.780320943973365
lwrist -11.275874012076189
lhand -38.863975978984065 -36.00391932358735
lfingers 7.125019999999983
lthumb -11.804933760842525 -6.312151191022316
rfemur -25.468096131675864 1.7483217649275444 19.936210732803723
rtibia 47.891689632611495
rfoot -7.2705254511580275 -9.889607428758945
rtoes -1.4653002818331087
lfemur -14.873592370209089 -0.3018302254770052 -17.177393248963917
ltibia 42.5969474875308
lfoot -6.019792058778964 -4.783830963349255
ltoes -6.249302266492516
